<svg xmlns="http://www.w3.org/2000/svg" enable-background="new 0 0 2820 2200" viewBox="0 0 2820 2200"><path fill="#231f20" d="m1556.5 725.3c-14.1-.6-14.1-.6-18.6 11.5-28.2 81.4-55.8 161.6-84 243-8.3 25-17.3 50-25.6 75-3.8 11.5-3.8 11.5-16.7 11.5-23.1 0-46.2 0-69.2 0-11.5 0-11.5 0-15.4-11.5-18-51.9-35.9-103.2-53.9-155.2-18-53.2-36.5-105.8-54.5-158.4-.6-1.9-1.3-4.5-2.6-6.4-3.8-9-5.8-9.6-18-7.7v339.2c-51.9 0-102.6 0-153.9 0 0-185.3 0-369.9 0-555.9h235.9c3.8 3.8 5.8 9 7.7 14.1 21.8 69.2 43.6 137.2 65.4 206.5 5.1 15.4 9.6 30.8 14.1 46.2 1.3 4.5 3.8 9 5.8 13.5 1.3 3.2 3.8 5.8 7.7 5.8 4.5 0 6.4-3.2 7.7-7.1 2.6-7.7 5.1-14.7 7.1-22.4 10.3-33.3 19.9-66.7 30.1-98.7 14.7-49.4 30.1-98.1 45.5-147.5.6-2.6 1.9-5.8 3.2-9h237.2c1.9 7.7 2.6 541.8.6 555.9-51.9 0-103.2 0-156.4 0 .8-116 .8-228.2.8-342.4z"/><path fill="#231f20" d="m2013.6 631.1v93h207.7v114.1c-68.6 0-137.2 0-205.2 0-2.6 9-3.8 88.5-1.3 106.4h282.8v120.5c-151.3 0-303.3 0-455.2 0 0-184.7 0-369.9 0-554.6 7.7-2.6 442.4-3.2 457.8-.6v120.5c-31.4 0-62.8 0-94.3 0-32.1 0-64.1 0-96.2 0-32 .7-63.4.7-96.1.7z"/><path fill="#231f20" d="m469 849.7h153.2c2.6 1.9 1.3 5.1 1.9 8.3 0 12.8.6 25.6 0 38.5-.6 10.9 4.5 19.2 10.3 26.9 3.8 5.1 9.6 8.3 16.7 8.3h73.7c12.2 0 19.2-5.8 21.8-17.3 1.9-7.7 2.6-15.4 2.6-23.7 0-121.8 0-244.3.6-366.1 0-4.5-.6-9 1.3-14.1h163.5c2.6 2.6 1.9 5.8 1.9 8.3 0 132.7.6 266.1 0 399.4 0 32.1-9 62.8-25.6 90.4-20.5 34-51.9 52.6-91.7 56.4-52.6 5.1-104.5 1.3-157.1 2.6-23.1.6-46.2-.6-68.6-3.2-18.6-1.9-35.3-9-49.4-20.5-30.1-24.4-48.1-56.4-53.2-94.9-3.8-32.1-1.9-64.8-1.9-96.2-1.2-1.8-.6-1.8 0-3.1z"/><path fill="none" stroke="#231f20" stroke-miterlimit="10" stroke-width="100" d="m144 144.4h2532v1908.8h-2532z"/><g fill="#231f20"><g><path d="m720.3 1354.1h-77.3v76.7h70.2v90.3h-70.2v175.5h-100.1v-433.5h177.4zm-161.2-76.7v404.9h67.6v-175.5h70.2v-61.8h-70.2v-105.3h77.3v-62.4h-144.9z"/><path d="m860.1 1696.7h-100.1v-433.5h100.1zm-83.9-419.3v404.9h67.6v-404.9z"/></g><path d="m1017.4 1609.6h89v87.1h-187.2v-433.5h98.1v346.4zm-81.9-332.2v404.9h154.7v-58.5h-89v-346.4z"/><path d="m1272.8 1263.1 36.4 179.4 34.4-179.4h127.4v433.5h-94.2v-200.2l-44.2 200.2h-47.4l-44.2-200.2v200.2h-94.2v-433.5zm-109.8 419.3h61.7v-321.7l74.1 321.7h20.1l74.1-321.7v321.7h61.7v-404.9h-96.7l-47.4 242.4-51.3-242.4h-96.3z"/><path d="m1819.5 1427.6v-63.7c0-14.3-5.9-23.4-16.2-23.4-11.1 0-18.2 9.1-18.2 23.4v224.9c0 22.1 5.2 32.5 16.9 32.5s17.6-10.4 17.6-32.5v-67.6h98.1v67.6c0 44.2-8.4 69.5-31.2 91-20.8 19.5-46.2 27.9-82.5 27.9-78 0-117.6-39.6-117.6-118.9v-224.9c0-69.5 42.9-111.8 114.4-111.8 76 0 117 39 117 111.8v63.7zm81.9-63.7c0-64.3-33.8-97.5-100.1-97.5-62.4 0-98.8 35.8-98.8 97.5v224.9c0 70.8 32.5 104.6 101.4 104.6 32.5 0 54.6-7.8 72.1-25.3 18.2-18.2 25.3-39.6 25.3-79.3v-53.3h-65.6v53.3c0 30.5-11.7 46.8-33.8 46.8s-33.1-16.2-33.1-46.8v-224.9c0-22.1 13.6-37.7 34.5-37.7 20.1 0 32.5 14.3 32.5 37.7v49.4h65.6z"/><path d="m1961.2 1352.2c0-61.1 46.1-100.1 117-100.1s113.7 37.7 113.7 100.1v254.8c0 26.6-11 53.9-28.6 72.1-19.5 19.5-46.1 28.6-86.4 28.6s-61.1-6.5-83.8-27.3c-22.8-19.5-31.8-41.6-31.8-73.4v-254.8zm214.4 0c0-53.9-36.4-85.8-96.8-85.8-33.2 0-55.9 7.1-74.1 22.7-17.5 15.6-27.3 38.4-27.3 63v254.9c0 27.3 7.1 44.8 25.4 62.4 19.5 17.5 37.7 24 71.5 24 39 0 61.1-7.2 78-25.3 14.3-15.6 23.4-39 23.4-61.1v-254.8zm-130 9.7c0-21.4 11.7-34.4 31.2-34.4 18.8 0 31.8 13 31.8 30.5v243.1c0 20.8-11.7 32.5-32.5 32.5-19.5 0-30.6-11-30.6-32.5v-239.2zm46.8-3.9c0-9.8-6.5-16.2-15.6-16.2-9.8 0-15 7.1-15 20.1v239.2c0 13 3.9 18.2 14.3 18.2 11.7 0 16.2-5.2 16.2-18.2v-243.1z"/><path d="m2332.9 1606.3v90.3h-98.8v-90.3zm-85.8 77.4h72.8v-64.3h-72.8z"/></g></svg>