<svg enable-background="new 0 0 2820 2200" viewBox="0 0 2820 2200" xml:space="preserve" xmlns="http://www.w3.org/2000/svg"><path d="m1555.3 730c-14.1-.6-14.1-.6-18.6 11.5-28.2 81.4-55.8 161.6-84 243-8.3 25-17.3 50-25.6 75-3.8 11.5-3.8 11.5-16.7 11.5-23.1 0-46.2 0-69.2 0-11.5 0-11.5 0-15.4-11.5-18-51.9-35.9-103.2-53.9-155.2-18-53.2-36.5-105.8-54.5-158.4-.6-1.9-1.3-4.5-2.6-6.4-3.8-9-5.8-9.6-18-7.7v339.2c-51.9 0-102.6 0-153.9 0 0-185.3 0-369.9 0-555.9h235.9c3.8 3.8 5.8 9 7.7 14.1 21.8 69.2 43.6 137.2 65.4 206.5 5.1 15.4 9.6 30.8 14.1 46.2 1.3 4.5 3.8 9 5.8 13.5 1.3 3.2 3.8 5.8 7.7 5.8 4.5 0 6.4-3.2 7.7-7.1 2.6-7.7 5.1-14.7 7.1-22.4 10.3-33.3 19.9-66.7 30.1-98.7 14.7-49.4 30.1-98.1 45.5-147.5.6-2.6 1.9-5.8 3.2-9h237.2c1.9 7.7 2.6 541.8.6 555.9-51.9 0-103.2 0-156.4 0 .8-116.1.8-228.3.8-342.4z" fill="#fff"/><path d="m2012.4 635.7v93h207.7v114.1c-68.6 0-137.2 0-205.2 0-2.6 9-3.8 88.5-1.3 106.4h282.8v120.5c-151.3 0-303.3 0-455.2 0 0-184.7 0-369.9 0-554.6 7.7-2.6 442.4-3.2 457.8-.6v120.5c-31.4 0-62.8 0-94.3 0-32.1 0-64.1 0-96.2 0-31.9.7-63.4.7-96.1.7z" fill="#fff"/><path d="m467.9 854.3h153.2c2.6 1.9 1.3 5.1 1.9 8.3 0 12.8.6 25.6 0 38.5-.6 10.9 4.5 19.2 10.3 26.9 3.8 5.1 9.6 8.3 16.7 8.3h73.7c12.2 0 19.2-5.8 21.8-17.3 1.9-7.7 2.6-15.4 2.6-23.7 0-121.8 0-244.3.6-366.1 0-4.5-.6-9 1.3-14.1h163.5c2.6 2.6 1.9 5.8 1.9 8.3 0 132.7.6 266.1 0 399.4 0 32.1-9 62.8-25.6 90.4-20.5 34-51.9 52.6-91.7 56.4-52.6 5.1-104.5 1.3-157.1 2.6-23.1.6-46.2-.6-68.6-3.2-18.6-1.9-35.3-9-49.4-20.5-30.1-24.4-48.1-56.4-53.2-94.9-3.8-32.1-1.9-64.8-1.9-96.2-1.3-1.8-.7-1.8 0-3.1z" fill="#fff"/><path d="m145 144.3h2532v1908.8h-2532z" fill="none" stroke="#fff" stroke-miterlimit="10" stroke-width="100"/><g fill="#fff"><text font-family="'GothicOutTitDOT'" font-size="650" transform="translate(514.58 1696.5901)">FI</text><text font-family="'GothicOutTitDOT'" font-size="650" letter-spacing="5" transform="translate(890.9299 1696.5901)">L</text><text font-family="'GothicOutTitDOT'" font-size="650" transform="translate(1118.4199 1696.5901)">M </text><text font-family="'GothicOutTitDOT'" font-size="650" transform="translate(1664.4199 1696.5901)">C</text><text font-family="'GothicOutTitDOT'" font-size="650" transform="translate(1939.3599 1696.5901)">O</text><text font-family="'GothicOutTitDOT'" font-size="650" transform="translate(2217.5498 1696.5901)">.</text></g></svg>