<svg enable-background="new 0 0 480 280" viewBox="0 0 480 280" xmlns="http://www.w3.org/2000/svg"><path d="m5.2 273c0-88.4 0-176.7 0-265.1h470v265.1c-156.7 0-313.3 0-470 0zm450.2-245.3c-143.5 0-286.8 0-430.3 0v226.1h430.3c0-75.4 0-150.8 0-226.1z" fill="#fff"/><path d="m369.6 294c-.2 0-.3 0-.5 0 0-.3-.1-.6.3-.6s.3.4.2.6z" fill="#c2b18f"/><path d="m255.8 128.9c-2.2-.1-2.2-.1-2.9 1.8-4.4 12.7-8.7 25.2-13.1 37.9-1.3 3.9-2.7 7.8-4 11.7-.6 1.8-.6 1.8-2.6 1.8-3.6 0-7.2 0-10.8 0-1.8 0-1.8 0-2.4-1.8-2.8-8.1-5.6-16.1-8.4-24.2-2.8-8.3-5.7-16.5-8.5-24.7-.1-.3-.2-.7-.4-1-.6-1.4-.9-1.5-2.8-1.2v52.9c-8.1 0-16 0-24 0 0-28.9 0-57.7 0-86.7h36.8c.6.6.9 1.4 1.2 2.2 3.4 10.8 6.8 21.4 10.2 32.2.8 2.4 1.5 4.8 2.2 7.2.2.7.6 1.4.9 2.1.2.5.6.9 1.2.9.7 0 1-.5 1.2-1.1.4-1.2.8-2.3 1.1-3.5 1.6-5.2 3.1-10.4 4.7-15.4 2.3-7.7 4.7-15.3 7.1-23 .1-.4.3-.9.5-1.4h37c.3 1.2.4 84.5.1 86.7-8.1 0-16.1 0-24.4 0 .1-18.1.1-35.6.1-53.4z" fill="#fff"/><path d="m214 97.4-.7-2.2h-.4" fill="#987b40"/><g fill="#fff"><path d="m327.1 114.2v14.5h32.4v17.8c-10.7 0-21.4 0-32 0-.4 1.4-.6 13.8-.2 16.6h44.1v18.8c-23.6 0-47.3 0-71 0 0-28.8 0-57.7 0-86.5 1.2-.4 69-.5 71.4-.1v18.8c-4.9 0-9.8 0-14.7 0-5 0-10 0-15 0-5 .1-9.9.1-15 .1z"/><path d="m86.2 148.3h23.9c.4.3.2.8.3 1.3 0 2 .1 4 0 6-.1 1.7.7 3 1.6 4.2.6.8 1.5 1.3 2.6 1.3h11.5c1.9 0 3-.9 3.4-2.7.3-1.2.4-2.4.4-3.7 0-19 0-38.1.1-57.1 0-.7-.1-1.4.2-2.2h25.5c.4.4.3.9.3 1.3 0 20.7.1 41.5 0 62.3 0 5-1.4 9.8-4 14.1-3.2 5.3-8.1 8.2-14.3 8.8-8.2.8-16.3.2-24.5.4-3.6.1-7.2-.1-10.7-.5-2.9-.3-5.5-1.4-7.7-3.2-4.7-3.8-7.5-8.8-8.3-14.8-.6-5-.3-10.1-.3-15-.2-.3-.1-.3 0-.5z"/></g></svg>