<svg enable-background="new 0 0 480 310" viewBox="0 0 480 310" xmlns="http://www.w3.org/2000/svg"><path d="m5.2 269.8c0-88.4 0-176.7 0-265.1h470v265.1c-156.7 0-313.3 0-470 0zm450.2-245.4c-143.5 0-286.8 0-430.3 0v226.1h430.3c0-75.4 0-150.7 0-226.1z" fill="#fff"/><path d="m369.6 290.7c-.2 0-.3 0-.5 0 0-.3-.1-.6.3-.6s.3.4.2.6z" fill="#c2b18f"/><path d="m255.8 125.7c-2.2-.1-2.2-.1-2.9 1.8-4.4 12.7-8.7 25.2-13.1 37.9-1.3 3.9-2.7 7.8-4 11.7-.6 1.8-.6 1.8-2.6 1.8-3.6 0-7.2 0-10.8 0-1.8 0-1.8 0-2.4-1.8-2.8-8.1-5.6-16.1-8.4-24.2-2.8-8.3-5.7-16.5-8.5-24.7-.1-.3-.2-.7-.4-1-.6-1.4-.9-1.5-2.8-1.2v52.9c-8.1 0-16 0-24 0 0-28.9 0-57.7 0-86.7h36.8c.6.6.9 1.4 1.2 2.2 3.4 10.8 6.8 21.4 10.2 32.2.8 2.4 1.5 4.8 2.2 7.2.2.7.6 1.4.9 2.1.2.5.6.9 1.2.9.7 0 1-.5 1.2-1.1.4-1.2.8-2.3 1.1-3.5 1.6-5.2 3.1-10.4 4.7-15.4 2.3-7.7 4.7-15.3 7.1-23 .1-.4.3-.9.5-1.4h37c.3 1.2.4 84.5.1 86.7-8.1 0-16.1 0-24.4 0 .1-18.1.1-35.7.1-53.4z" fill="#fff"/><path d="m214 94.2-.7-2.2h-.4" fill="#987b40"/><g fill="#fff"><path d="m327.1 110.9v14.5h32.4v17.8c-10.7 0-21.4 0-32 0-.4 1.4-.6 13.8-.2 16.6h44.1v18.8c-23.6 0-47.3 0-71 0 0-28.8 0-57.7 0-86.5 1.2-.4 69-.5 71.4-.1v18.8c-4.9 0-9.8 0-14.7 0-5 0-10 0-15 0-5 .1-9.9.1-15 .1z"/><path d="m86.2 145h23.9c.4.3.2.8.3 1.3 0 2 .1 4 0 6-.1 1.7.7 3 1.6 4.2.6.8 1.5 1.3 2.6 1.3h11.5c1.9 0 3-.9 3.4-2.7.3-1.2.4-2.4.4-3.7 0-19 0-38.1.1-57.1 0-.7-.1-1.4.2-2.2h25.5c.4.4.3.9.3 1.3 0 20.7.1 41.5 0 62.3 0 5-1.4 9.8-4 14.1-3.2 5.3-8.1 8.2-14.3 8.8-8.2.8-16.3.2-24.5.4-3.6.1-7.2-.1-10.7-.5-2.9-.3-5.5-1.4-7.7-3.2-4.7-3.8-7.5-8.8-8.3-14.8-.6-5-.3-10.1-.3-15-.2-.3-.1-.3 0-.5z"/><path d="m56.6 304.6h-1.4v-11.3h-.2l-3.6 10.8c-.1.4-.2.5-.6.5h-.8c-.4 0-.5-.1-.6-.5l-3.6-10.9h-.2v11.4h-1.4v-12.6h2.2c.4 0 .5.1.6.5l3.4 10.3h.2l3.3-10.3c.1-.4.2-.5.6-.5h2.1z"/><path d="m67.8 292c1.2 0 1.6.1 2 .5.7.6 1 1.5 1 5.8s-.4 5.2-1 5.8c-.4.4-.8.5-2 .5h-3.8c-1.1 0-1.6-.1-2-.5-.6-.6-1-1.5-1-5.8s.4-5.2 1-5.8c.4-.4.8-.5 2-.5zm-4.9 11.1c.2.2.4.3 1.2.3h3.6c.8 0 1-.1 1.2-.3.3-.3.6-.9.6-4.8s-.3-4.5-.6-4.8c-.2-.2-.4-.3-1.2-.3h-3.6c-.8 0-1 .1-1.2.3-.3.3-.6.9-.6 4.8s.4 4.5.6 4.8z"/><path d="m79.4 293.2v11.4h-1.4v-11.4h-4.1v-1.2h9.6v1.2z"/><path d="m86.9 304.6v-12.6h1.4v12.6z"/><path d="m99.7 292c1.2 0 1.6.1 2 .5.7.6 1 1.5 1 5.8s-.4 5.2-1 5.8c-.4.4-.8.5-2 .5h-3.9c-1.1 0-1.6-.1-2-.5-.6-.6-1-1.5-1-5.8s.4-5.2 1-5.8c.4-.4.8-.5 2-.5zm-4.9 11.1c.2.2.4.3 1.2.3h3.6c.8 0 1-.1 1.2-.3.3-.3.6-.9.6-4.8s-.3-4.5-.6-4.8c-.2-.2-.4-.3-1.2-.3h-3.6c-.8 0-1 .1-1.2.3-.3.3-.6.9-.6 4.8s.3 4.5.6 4.8z"/><path d="m116.7 304.6h-1.5c-.5 0-.6-.1-.8-.5l-5.8-10.3h-.2v10.8h-1.4v-12.6h1.6c.5 0 .6.1.8.5l5.7 10h.2v-10.5h1.4z"/><path d="m134.6 299.1c-.4.4-1 .5-1.9.5h-4.6v5h-1.4v-12.6h6c.9 0 1.5.1 1.9.5.5.5.9 1.2.9 3.3.1 2.1-.3 2.8-.9 3.3zm-2.2-.7c.7 0 1-.1 1.2-.3s.5-.7.5-2.3c0-1.7-.3-2.1-.5-2.3s-.5-.3-1.2-.3h-4.3v5.2z"/><path d="m139.5 304.6v-12.6h1.4v12.6z"/><path d="m154 304.1c-.4.4-.8.5-2 .5h-3.7c-1.1 0-1.6-.1-2-.5-.6-.6-1-1.5-1-5.8s.4-5.2 1-5.8c.4-.4.8-.5 2-.5h3.7c1.1 0 1.6.1 2 .5.6.6.9 1.3.9 3.4h-1.4c-.1-1.7-.3-2.2-.5-2.4s-.4-.3-1.2-.3h-3.4c-.8 0-1 .1-1.2.3-.3.3-.6.9-.6 4.8s.3 4.5.6 4.8c.2.2.4.3 1.2.3h3.4c.8 0 1-.1 1.2-.3.3-.3.4-.7.5-2.6h1.4c0 2.4-.3 3-.9 3.6z"/><path d="m163.3 293.2v11.4h-1.4v-11.4h-4.1v-1.2h9.6v1.2z"/><path d="m180.4 299.5c0 3-.3 3.8-.9 4.5-.5.5-1.2.6-2.6.6h-2.6c-1.4 0-2.1-.2-2.6-.6-.6-.6-.9-1.4-.9-4.5v-7.5h1.4v7.7c0 2.5.2 3 .5 3.3.2.2.5.3 1.8.3h2.2c1.2 0 1.5-.1 1.7-.3.3-.3.5-.8.5-3.3v-7.7h1.4v7.5z"/><path d="m192.1 299.5c-.3-.3-.6-.3-1.4-.3h-4.2v5.5h-1.4v-12.6h6.4c.9 0 1.5.1 1.9.5.5.5.8 1.1.8 3 0 2.2-.6 2.8-1.9 3.1 1.2.3 1.7.6 1.8 2.7.1 1.5.1 2.6.2 3.3h-1.4c-.1-.8-.2-2-.2-3.3-.2-1.4-.3-1.7-.6-1.9zm-1-1.6c.6 0 .9-.1 1.1-.3s.5-.6.5-2.1c0-1.4-.3-1.9-.5-2.1s-.5-.3-1.1-.3h-4.6v4.7z"/><path d="m206.9 304.6h-8.3v-12.6h8.4v1.2h-7v4.2h6v1.2h-6v4.7h6.9z"/><path d="m224.5 304c-.4.4-.9.6-1.8.6h-4.3c-.9 0-1.5-.1-1.8-.5-.5-.5-.7-1-.7-3.3h1.4c0 1.8.1 2.1.3 2.3s.4.3 1 .3h3.9c.6 0 .8-.1 1-.3s.3-.7.3-1.9-.1-1.5-.3-1.8c-.2-.2-.4-.3-1.1-.3l-3.9-.4c-1-.1-1.5-.3-1.9-.6-.5-.5-.6-1-.6-2.6 0-1.5.2-2.3.7-2.9.3-.4.9-.6 1.8-.6h3.9c.9 0 1.5.1 1.9.5.5.5.6 1 .7 3.2h-1.4c0-1.6-.1-2-.3-2.2s-.4-.3-1-.3h-3.5c-.6 0-.8.1-1 .3-.2.3-.3.8-.3 1.9s.1 1.4.3 1.7c.2.2.4.3 1.1.3l3.9.4c1 .1 1.5.3 1.8.6.5.5.6 1.1.6 2.7 0 1.7-.2 2.4-.7 2.9z"/><path d="m233.6 293.2v11.4h-1.4v-11.4h-4.1v-1.2h9.6v1.2z"/><path d="m250.7 299.5c0 3-.3 3.8-.9 4.5-.5.5-1.2.6-2.6.6h-2.6c-1.4 0-2.1-.2-2.6-.6-.6-.6-.9-1.4-.9-4.5v-7.5h1.4v7.7c0 2.5.2 3 .5 3.3.2.2.5.3 1.8.3h2.2c1.2 0 1.5-.1 1.7-.3.3-.3.5-.8.5-3.3v-7.7h1.4z"/><path d="m261.1 292c1.4 0 2.1.2 2.7.8.8.7 1.2 2.1 1.2 5.5s-.5 4.8-1.2 5.5c-.6.5-1.3.8-2.7.8h-5.7v-12.6zm1.6 1.7c-.4-.4-.7-.5-1.6-.5h-4.3v10.2h4.3c.9 0 1.2-.1 1.6-.5.5-.5.9-1.5.9-4.6-.1-3.2-.4-4.2-.9-4.6z"/><path d="m269.3 304.6v-12.6h1.4v12.6z"/><path d="m282 292c1.2 0 1.6.1 2 .5.7.6 1 1.5 1 5.8s-.4 5.2-1 5.8c-.4.4-.8.5-2 .5h-3.9c-1.1 0-1.6-.1-2-.5-.6-.6-1-1.5-1-5.8s.4-5.2 1-5.8c.4-.4.8-.5 2-.5zm-4.9 11.1c.2.2.4.3 1.2.3h3.6c.8 0 1-.1 1.2-.3.3-.3.6-.9.6-4.8s-.3-4.5-.6-4.8c-.2-.2-.4-.3-1.2-.3h-3.6c-.8 0-1 .1-1.2.3-.3.3-.6.9-.6 4.8s.4 4.5.6 4.8z"/><path d="m298.3 297.5h2.9v1.2h-2.9v2.9h-1.2v-2.9h-2.9v-1.2h2.9v-3h1.2z"/><path d="m312 293.2v4.5h5.4v1.2h-5.4v5.7h-1.4v-12.6h7.9v1.2z"/><path d="m322.2 304.6v-12.6h1.4v12.6z"/><path d="m329.8 303.4h6.4v1.2h-7.8v-12.6h1.4z"/><path d="m352.3 304.6h-1.4v-11.3h-.2l-3.6 10.8c-.1.4-.2.5-.6.5h-.8c-.4 0-.5-.1-.6-.5l-3.6-10.9h-.2v11.4h-1.4v-12.6h2.2c.4 0 .5.1.6.5l3.4 10.3h.2l3.3-10.3c.1-.4.2-.5.6-.5h2.1z"/><path d="m369 300.7h-5.3l-1.2 3.9h-1.4l4.1-12.2c.1-.4.2-.5.7-.5h1.1c.5 0 .6.1.7.5l4.1 12.2h-1.5zm-4.9-1.2h4.5l-2.1-6.3h-.4z"/><path d="m381.6 292c1.1 0 1.6.1 2 .5.6.6.9 1.3.9 3.3h-1.4c-.1-1.5-.2-2-.5-2.3-.2-.2-.4-.3-1.1-.3h-3.5c-.8 0-1 .1-1.2.3-.3.3-.6.9-.6 4.8s.3 4.5.6 4.8c.2.2.4.3 1.2.3h3.5c.8 0 1-.1 1.1-.3.3-.3.5-.8.5-3.3v-.4h-3.4v-1.2h4.8v1c0 3.4-.3 4.2-1 4.9-.4.4-.8.5-2 .5h-3.8c-1.1 0-1.6-.1-2-.5-.6-.6-1-1.5-1-5.8s.4-5.2 1-5.8c.4-.4.8-.5 2-.5z"/><path d="m397.2 304.6h-8.3v-12.6h8.4v1.2h-7v4.2h6v1.2h-6v4.7h6.9z"/><path d="m410.8 304.6h-1.5c-.5 0-.6-.1-.8-.5l-5.8-10.3h-.2v10.8h-1.4v-12.6h1.6c.5 0 .6.1.8.5l5.7 10h.2v-10.5h1.4z"/><path d="m423.9 304.1c-.4.4-.8.5-2 .5h-3.7c-1.1 0-1.6-.1-2-.5-.6-.6-1-1.5-1-5.8s.4-5.2 1-5.8c.4-.4.8-.5 2-.5h3.7c1.1 0 1.6.1 2 .5.6.6.9 1.3.9 3.4h-1.4c-.1-1.7-.3-2.2-.5-2.4s-.4-.3-1.2-.3h-3.4c-.8 0-1 .1-1.2.3-.3.3-.6.9-.6 4.8s.3 4.5.6 4.8c.2.2.4.3 1.2.3h3.4c.8 0 1-.1 1.2-.3.3-.3.5-.7.5-2.6h1.4c0 2.4-.3 3-.9 3.6z"/><path d="m433.3 299.6v5h-1.4v-5l-4.4-7.6h1.5l3.5 6.2h.1l3.5-6.2h1.5z"/></g></svg>