<svg enable-background="new 0 0 600 600" viewBox="0 0 600 600" xmlns="http://www.w3.org/2000/svg"><path d="m226.2 415.6c-4.1-3.1-8.2-6.3-11.7-10.1-8.1-8.9-12.6-19.4-14.6-31.2 0-.3.2-.6.5-1.2 19.5 10.2 33.1 24.8 36.4 47.1 2.3 1.8 4.5 1.9 6.9 2.1 8 .5 15.9 1 23.8 2.7 12.1 2.5 23.5 6.2 31.9 15.7.6-.1 1-.1 1.1-.3 9.4-10.3 22-13.8 35.1-16.1 6.9-1.2 13.9-1.8 20.8-2 2.2-.1 4.3-.4 6.9-1.7 3.2-22.2 16.7-37.2 36.4-47.4 1.3 1.7.2 3.1-.1 4.4-2.9 14.2-10.1 25.9-21.5 34.9-.8.6-1.5 1.3-2.2 2-.6.4-1.2.8-1.8 1.1-1.1.9-2.8 1.1-3.2 2.8-.3.1-.6.1-.5.1-.1.1.1-.1.4-.2 1.5-.2 2.9-.8 4.2-1.7.7-.3 1.4-.5 2.2-.8 10.9-4.5 21.2-10.3 31.5-16.5-1.4-10.9-.3-21.1 4.5-30.8 3.9-7.7 9.3-14.1 16.1-20.2 1.8 7.6 1.4 14.7-.1 21.8-1.2 5.8-3.5 11.1-6.6 16.1-.8 1.3-2.2 2.5-1.9 4.4 4.3-1.1 19.3-11.3 27-18.4-4-10.7-5.8-21.9-2.7-33.5 2-7.5 5.6-14.2 10.2-20.3 1.7.4 1.5 1.8 1.9 2.8 5.1 14 5 27.7-1.8 41.2-.5 1-1.3 2 .1 3.7 10.2-8 19.5-16.9 27.3-27 .2-2.6-1.3-4-2.3-5.7-3-5.2-5.5-10.7-6.6-16.6-2-10.8-.5-21.2 4.7-32.2 5.3 7.1 8.6 14.6 10.3 23 1.7 8.5.3 16.8-1.8 25.1 8.5-10.3 14.7-21.7 19.8-33.7-1-2.5-2.9-4-4.4-5.7-11.6-13-15.2-28.1-12.3-45.1.1-.5.3-1 1.1-1.2 11.9 11.5 19.1 25.1 18.9 42.3 4.4-10.8 7.3-21.7 9-33.4-9.8-6.6-18-14.5-22.9-25.3-2.9-6.6-4.5-13.5-4.7-21.5 14.1 8.9 24.5 19.9 28.6 36.1 2.2-5.6 3.3-23.7 2.1-31.5-2-1.8-4.6-2.6-6.9-3.8-15.3-7.8-25.8-19.7-31-36.2-.1-.5-.2-1-.3-1.4 0-.1.1-.3.3-.9 8.4 3.3 16 7.7 22.7 13.7 6.7 5.9 11.5 13.2 15 22-.8-11.9-2.9-22.9-6-33.7-2.2-1.5-4.5-1.8-6.7-2.5-16.5-5.1-29.4-14.6-37.9-29.8-.4-.7-.7-1.5-1.1-2.2 0-.1.1-.3.3-.8 10.5 2.6 20.4 6.6 29.2 13.2 4.6 3.5 8.2 7.8 11.9 12 .2.4.4 1 .9.6.2-.2 0-.9 0-1.3-2.8-9.1-6.5-17.8-11.1-26.2-13.3-1-25.8-3.9-37-11.2-5.7-3.7-10.9-8.1-15.3-13.5 10.4-1.8 32.1 4 45.2 15.2.3.3.6.6 1 .8.4.3.6 1.1 1.4.8.3-.7 0-1.2-.6-1.5-.2-.4-.4-.9-.6-1.3-4.4-7.7-9.8-14.6-16.2-21.6-21.1 2.5-40.7-2-58.6-16.1 7.6-1 14.3-1.1 21.1-.4 9.2.9 18 3.4 26.2 7.7 1 .5 2 1.3 3.2.6-.3.3-.3.6 0 .7 0 0 .1-.2.1-.3.2-.6 0 .2-.3-.3-7.2-7.3-15.1-13.3-25.4-16-16.5-4.1-29-13.7-37.7-28-.4-.7-.8-1.4-1.2-2.1 1.2-1.2 2.3-.4 3.3-.2 7.6 1.9 15 4.5 21.8 8.6 7.6 4.5 14 10.2 18.8 17.6 1.7 2.6 3.8 4.5 6.5 6 3.7 2.1 7.3 4.4 11.3 6.5-6-11.2-8.3-23-5.9-36.1 11.8 10.8 20.2 22.8 19.9 38.7-.2 7.5 1.3 13.6 6.8 18.6 1.4 1.3 2.1 3.4 4.6 4.6-1.7-10.9-.5-20.9 4.1-31.2 9.2 13 14.5 26.5 10 41.9-2.1 7.1-2 13.1 1.9 19.3 1.2 1.9 1.9 4.2 3.3 6.3 1-11.4 5.3-21.4 12-30.5 6.4 14.3 7.9 31.5-5.4 51 .8 3.2 1.6 6.5 2.4 9.9.8 3.3 1.5 6.7 2.7 10 3.4-11.7 9.9-21.1 18.7-29.2 4.7 17.1-.4 35.5-16.8 51.2v11.6 11.9c3.4-5.5 6.8-10.8 11.3-15.5 4.4-4.5 9.2-8.4 14.9-11.9-.7 21.9-11.5 37-29 48-1.6 6.9-3.1 13.4-4.9 20.9 4.3-2.6 6.6-6 9.7-8.4 3.3-2.5 6.7-4.9 10.4-6.9 3.5-1.9 7-3.7 10.8-5.1 1.2 1.3.1 2.3-.2 3.3-5.2 15-15 26.1-29.1 33.5-2.4 1.2-4.7 2.4-7.2 3.5-1.6.7-2.7 1.8-3.5 3.4-2.3 4.8-4.6 9.6-6.9 14.4-.2.5-.4.9-.6 1.4-.2.2-.6.6-.5.7.3.7.8.3 1.2 0 .3-.3.7-.5 1-.8 9.4-6.2 19.6-10.3 31.2-12.7-8.1 14.9-19.6 24.9-34.8 30.7-.6.2-1.2.5-1.9.6-8.1 1.2-13.9 5.8-18.2 12.5-1 1.6-2.8 2.7-3.7 5.1 5.5-1.3 10.2-3.4 15.3-4.2 5-.8 10-1.8 15.6-1.7-1.5 2.6-3.5 4.2-5.2 5.9-11.9 11.5-26.2 18.1-42.6 19.9-4.1.4-7.7 1.5-10.9 4.2-4.2 3.5-8.7 6.6-13 10.2 6.2-.5 12.1-2.4 18.3-2.5 6.3-.1 12.6-.2 19 .4-.3 1.9-1.8 2.1-2.8 2.9-14.9 10.6-31.5 15.9-49.8 14.6-7.2-.5-13.4.9-19.4 4.7-4 2.6-8.5 4.5-12.7 7.1 7.6-.2 15.1-.8 22.6.2 7.4 1 14.7 2.7 22.4 5.4-8.1 3.7-15.9 6.2-24 7.5-12.7 2.2-25.2 1.3-37.6-2.5-4.1-1.2-8-1.6-12.2-.9-4 .7-8.2-.1-12.4.3-8.6 1-17.1 2.5-25.3 5.4-4.7 1.6-9.3 3.7-13.3 6.7-2.7 2-5.2 4.2-6.8 7.6 1.5 4.3 2.5 8.8 1.7 13.5-3.7 2.9-3.7 2.9-7.7.2-.9-4.7.1-9.2 1.8-13.5-1.7-3.9-4.6-6.3-7.8-8.4-7-4.8-14.9-7.4-23.1-9.1-8-1.7-16-3.3-24.3-2.4-.2 0-.3 0-.5 0-6.5-2-12.4.4-18.5 1.9-19.4 4.7-38 2-56.1-5.9 9.3-4.8 25.8-8 46.2-5.4-7.8-4.1-15.3-8.1-22.8-12-1.9-1-3.9-.6-5.9-.5-10.7.6-21.3.3-31.7-2.9-9.7-3-18.3-7.8-27.3-14.4 14.1-1.4 27-1.1 39.9 2.6-6.2-4.6-12.3-9.3-18.6-13.7-1.9-1.3-4.5-1.2-6.8-1.4-18.5-2.1-34-10.1-46.6-23.8-.4-.5-1-.9-.9-2 4.1-.5 8.1.6 12.1 1.1 5.1.7 10.1 2 15 3.8 1.2.5 2.4 1.1 3.8.5 0 0-.1.1-.1.1-2.8-3.3-5.8-6.4-8.3-10-2.3-3.2-5.1-4.9-8.8-5.8-10.4-2.7-19.8-7.6-27.8-14.9-5.6-5-9.9-11-14.1-18.1 12.4 2.6 23.1 6.9 32.8 14 .3.3.7.7 1 1 .6.2.1-.7.3-.1 0 .1.1.3 0 .3-.3.2-.4.1-.4-.3-.1-.6-.4-1-1.1-.8.9-1.2.1-2.2-.4-3.2-2.3-4.6-4.7-9.2-6.8-13.9-1.1-2.4-3.1-3.3-5.2-4.3-7.8-3.5-14.9-8-20.9-14.1-6.7-6.8-11.1-14.8-14.2-23.7-.2-.5-.3-1 .5-1.6 9.5 3.8 18.5 8.9 25.9 16.4 1.4 1.4 2.4 3.2 4.2 4.2.2.2.4.5.5.7.5-.4.3-.8 0-1.2-1.6-6.8-3.2-13.6-4.9-20.8-17.2-10.9-28.2-26.1-28.8-48.1 11.1 7.2 20.1 15.6 25.7 28 1.1-1.4.8-2.6.7-3.6-.1-5.7-.3-11.3-.2-17 0-2.5-.6-4.4-2.4-6.2-5.6-5.6-10.1-11.9-12.9-19.4-3.6-9.4-3.8-19-2-29.5 9.2 8.3 15.6 17.7 19.5 29.4 1.6-6.6 3.2-13.2 4.8-20.1-11.4-15.6-13-32.4-5.5-50.8 6.9 9.2 11.2 19 11.8 31 2.2-2.6 2.5-5.4 4-7.6 3.6-5.5 4-11 1.8-17.4-3.5-10.4-1.8-20.7 2.6-30.6 1.8-4.1 4.1-7.9 7.1-12.2 4.6 10.2 5.8 20.3 5 30.9 3.3-3.9 6.6-7.8 9.8-11.8 1.3-1.6.7-3.5.6-5.3-.6-8.1.5-15.9 3.8-23.4 3.6-8.1 9.1-14.6 16-21.1 2.5 12.9.4 24.4-5.8 35.5 4.8-1.4 12.8-6.5 14.8-9.6 9.1-14.5 22.4-22.9 38.5-27.4 2.2-.6 4.3-1.6 7.4-1.5-2.8 4.9-5.7 9-9.1 12.8-7.7 8.4-17 14.5-28 17.5-9.7 2.6-17.3 8.3-24.3 15-.4.4-1.2.6-.8 1.5.7.3 1.2 0 1.7-.5 8.7-4 17.6-7 27.2-7.8 6.6-.6 13.2-.6 20.9.5-8.9 7-17.8 11.5-27.8 14.2-10.1 2.7-20.4 2.8-30.8 1.8-6.4 7.1-12.4 14.4-16.8 22.9-.6.5-1.1 1-.2 1.8.4-.3.7-.6 1.1-.9 11.3-9.6 24.5-14.6 39-16.4 2.3-.3 4.6-.7 7.3 0-13.9 16.7-31.9 23.8-52.7 25.1-4.9 8.8-8.5 17.8-10.8 27.5 2.8-3.1 5.6-6.2 8.5-9.2 3-2.9 6.4-5.3 10-7.5 3.7-2.2 7.6-4.1 11.7-5.6 3.9-1.4 7.7-2.9 12.3-3.5-4.7 9.4-11 16.8-19 22.8-8 5.9-17.3 9.1-27 12-3.3 10.2-5 20.6-5.4 31.5 1.3-2.3 2.4-4.7 3.8-6.9 1.5-2.4 3.1-4.7 5-6.9 1.9-2.3 4.1-4.4 6.3-6.4 2.1-1.9 4.4-3.5 6.8-5.1s4.8-3 7.3-4.3c2.4-1.3 5-2.5 8.4-4.1-5.7 21.6-19.6 34.3-38.4 42.3-1.5 6.5-.7 24.3 1.7 32.8 2.1-8.3 5.5-15.2 10.5-21.2 5-6.1 11.1-10.9 18.3-15.8-.2 10.3-2.8 19.2-7.7 27.4s-11.9 14.2-19.4 19.4c-.2 6.6 4.7 25.8 8.7 33.7-.3-17.2 6.8-30.9 19.3-42.8 4.6 20.9-1.9 37.8-16.4 51.9 5.3 12.6 11.6 24.1 20.1 34.4-3-10.5-3.8-20.9-.3-31.4 2-5.9 4.7-11.3 8.6-16.9 2.9 4.5 3.9 9.3 4.9 14.1 2.4 11.6.2 22.5-5.5 32.8-1.3 2.3-2.9 4.4-3.6 6.9 5.2 8.4 22.7 25.3 28.7 27.4-1.6-5.6-4.5-10.3-5.5-15.6-.9-5.3-1.4-10.6-.6-15.9.8-5.4 2.2-10.7 4.3-15.9 9.3 9.8 17.9 29.2 8.6 53.7 4.1 4.7 22.7 17.7 27.5 19-1.9-4.8-5.2-8.6-6.9-13.2s-2.8-9.2-3.4-14c-.6-5-.2-10 .7-15.6 15.6 13.8 23.8 29.9 20.7 51.1 11 6.5 21.9 12.8 33.7 17.3 1.3.9 2.7 1.4 4.2 1.7.2.1.5.1.5.1-.1 0-.4 0-.7-.1-.6-1.3-2.2-1.6-3.4-2.4zm227.5-48.3c.4-.3 1.2-.7.5-1.3-.6-.6-.9.4-1.3.6-.2.4-.5.9.1 1.2.2.1.5-.3.7-.5zm-307.2.1c.2.2.6.6.7.6.6-.3.3-.8.1-1.2-.4-.3-.6-1.3-1.3-.7-.7.5.1.9.5 1.3zm153.4 90.8c.8-2.3.9-4.6.1-7.9-1.5 3.3-1.4 5.6-.1 7.9zm134.3-69.3.2-.2h-.3zm-252.9 2.8c-.1-.1-.2-.2-.3-.3-.1.1-.2.2-.3.3.1.1.3.2.4.3.1-.1.2-.2.2-.3zm238.3 0c-.1-.1-.2-.2-.3-.3-.1.1-.2.2-.3.3.1.1.3.2.4.3 0-.1.1-.2.2-.3zm99.9-113c-.1-.1-.2-.2-.3-.3-.1.1-.3.2-.3.3s.1.2.2.3c.1-.1.3-.2.4-.3zm-6.4-112.8.2-.3h-.3zm-425.9-.5-.2.3h.3z" fill="#937538"/><path d="m406.1 309.8c-4.8-2.2-10-3.3-14.5-5.8-1.6 1.9-.2 3.9-1.3 5.8-1.9-.2-3.4-1.5-5-2.5-4.7-3.1-8.9-7-13.3-10.5-2.7-2.2-5.5-4.3-8.3-6.4-1.1-.8-2.2-1.6-3.6-1.4-3.7.6-7-.7-10.1-2.1-7.1-3.2-14.6-4.4-22-6.4-4.2-1.2-8.6-.9-12.7 1.2-3.5 1.8-7.6 2.6-10.5 5.5-1.2 1.2-3.1 1-5.2 1.6 4.5 8.4 1.2 15.1-3.8 21.6-.3-.3-.7-.6-1-.8.7-1.4 1.4-2.7 2.1-4.1l-.1-.3.2.4c-3.8.6-4.7 1.8-5 7-.2 0-.5-.1-.5-.1s.2 0 .4-.1c.7-.6 1.4-1.3 2.1-1.9.3.4.7.7 1 1.1-1.6 3.8-4.9 6.7-6.1 11 2.9 1.1 5.6 1 8.2-.5.7-.4 1.5-.8 2.2-1.2 1.3-.7 2.5-.8 3.8 0 1.6 1 2.2 2.4 1.3 4.4-1.7-.9-3.1-3.8-5.5-.7 1.5 1.8 4.6 2.9 3.7 6.2-1.8 0-2.4-2-4.1-2.1-1.5.4-.9 2.3-3.1 3.6.4-.1-.4.2-1.2.3-5.7.5-10.9 2.6-16.2 4.5-2.4.8-4.6 1.6-7.2.4-1.8-.8-3.9 0-5.9.5-2.5.7-5 1.9-7.7 1-1-.6-.5-1.6-1-2.3-1.2-.5-2 1.3-3.8 1 2.1-4.9 6.9-3.7 10.8-5.8.7-.7.3-3.1 2.5-3.7 1.6-.4 3.2-.6 4.9-.3 4.1.6 6.9-1.6 9.2-4.7 1.7-2.2 2.3-4.8 2.7-7.4.7-4.4 1.3-8.9 2.6-13.2.9-2.9 0-6-1-8.8-.6-1.7-2.2-2.8-4.2-3.2-5-1-9.3-3.4-13.4-6.3-6-4.2-12-8.4-18.7-11.6-3.4-1.7-5.9-4.3-8-7.3-3.5-5.1-7.4-9.8-11.6-14.4-3.8-4.2-7.3-8.7-10.4-13.4-5.2-8.1-7.5-17-8.1-26.4-.2-3.5.8-6.6 2.2-9.6 1.6-3.3 3.3-6.5 4.7-9.9 1.6-4 1.1-5-2.6-7.3-.7-.4-1.6-.8-2-1.4-3.5-4.9-8.7-6.2-14.1-7.5-7.9-1.9-15.6-4.7-23.9-4.6-1.1 0-2.4-.1-3-1.7 2.7-3.2 6.4-5.1 10.2-6.5 7-2.6 14.3-4.5 22-3.7 1.6.2 3-.1 4.3-.8 7-3.7 14.6-4.5 22.3-3.8 3.3.3 6.6.6 9.9 1 4.4.6 8 2.3 9.7 6.7.7 1.8 2.1 3 3.3 4.3 1.4 1.6 3.3 2.8 3.4 5.3 0 1.1 1 1.7 1.8 2.3 5.3 4.3 8.8 10 11.6 16.1 1.8 4.1 4.6 7.1 8 10 11.8 9.9 24.9 17.9 38.4 25 4.7 2.5 9.3 5.2 13.9 7.9 1.1.7 2.4 1.3 3.3 2.3 2.8 3.2 6.5 5.1 10.3 7 3.1 1.6 6.3 3 9 5.3 3.9 3.3 7.7 6.8 9.3 12 1.4 4.7 4.9 7.9 8.9 10.5 7 4.7 13.6 10.1 21.2 14 5 2.6 9.3 6.4 14.5 8.8-.4 1.4-.6 2.5-.9 3.4 2.1 4.5 7.9 5.4 9.2 10.5-3.4.8-6.3-2.2-9.7-.8.5.8 1.2 1.9 1.8 3.1-.2.2-.4.4-.6.7zm-10.6-7.4c.3-.3.5-.4.8-.1 0 0-.1.3-.1.3-.4.2-.6 0-.8-.3-.5-.5-.3.5-.3-.1 0-.1 0-.2.1-.3 0 .2.1.3.3.5zm-203-134.3c2-.6 4.3-.4 5.5-2.6.2-.4.3-.6-.1-.8-1.5-.3-2.6 1.4-4.1 1.1-3.6-3.5-10.7-3-16.6 1.5 4.3 0 8.1-.1 11.9 0 1.2 0 2.7-.6 3.6 1-1.1.8-2.2.3-3.4.2-4.6-.3-9.2-.3-13.8.3 6.9.6 13.7 1.1 19.8 4.1 1.9-.7 2.5-2 3-3.5-3.4-.2-3.4-.2-5.8-1.3z" fill="#937538"/><path d="m406.8 309.1c.2.2.6.5.6.6-.3.5-.8.3-1.2.1.1-.3.3-.5.6-.7z" fill="#937538"/><path d="m295.7 310.3c-.3.4-.6.8-.8 1.2-.3-.4-.7-.7-1-1.1.3-.3.5-.6.8-.9.3.2.7.5 1 .8z" fill="#937538"/><path d="m370.9 418.3c.4-1.7 2.1-1.9 3.2-2.8.3.3.5.7.8 1-1.2.9-2.6 1.5-4.2 1.7z" fill="#937538"/><path d="m229.5 418.3c-1.5-.4-2.9-.9-4.2-1.7.3-.3.6-.7.9-1 1.1.8 2.8 1.1 3.1 2.8z" fill="#937538"/><path d="m131.9 95.5c-.4.5-.9.9-1.7.5-.4-.8.4-1.1.8-1.5.3.4.6.7.9 1z" fill="#937538"/><path d="m370.8 418.2c-.2.1-.5.3-.4.2-.1 0 .2 0 .5-.1z" fill="#937538"/><path d="m495.7 127.1c.6.3.9.8.6 1.5-.8.3-1-.4-1.4-.8.3-.2.6-.4.8-.7z" fill="#937538"/><path d="m229.3 418.4c.3 0 .6.1.7.1 0 0-.3-.1-.5-.1z" fill="#937538"/><path d="m105.3 127.9c-.3.3-.7.6-1.1.9-.9-.8-.4-1.3.2-1.8.3.3.6.6.9.9z" fill="#937538"/><path d="m503.2 317.9c-.4.3-.9.7-1.2 0-.1-.1.3-.5.5-.7.3.2.5.4.7.7z" fill="#937538"/><path d="m98.5 319.3c-.3-.3-.7-.7-1-1l-.2.1c.7-.1 1.1.2 1.2.9-.1-.1 0 0 0 0z" fill="#937538"/><path d="m98.4 319.2c0 .4.1.5.4.3 0 0 0-.2 0-.3-.2-.6.4.3-.4 0z" fill="#937538"/><path d="m123.7 353.1s.1-.1.1-.1z" fill="#010101"/><g fill="#937538"><path d="m146.5 367.4c-.4-.4-1.2-.7-.5-1.3s.9.4 1.3.7c-.3.1-.5.3-.8.6z"/><path d="m453 366.7c.4-.3.6-1.2 1.3-.6s-.1.9-.5 1.3c-.3-.3-.5-.5-.8-.7z"/><path d="m147.3 366.7c.3.4.6.9-.1 1.2-.1.1-.5-.4-.7-.6.3-.2.5-.4.8-.6z"/><path d="m453.7 367.3c-.2.2-.6.6-.6.6-.6-.3-.3-.8-.1-1.2.3.2.5.4.7.6z"/><path d="m434.2 388.9-.1-.3.2.1z"/><path d="m181.3 391.7c-.1.1-.1.2-.2.3-.1-.1-.3-.2-.4-.3l.3-.3c.1.1.2.2.3.3z"/><path d="m419.6 391.7c-.1.1-.1.2-.2.3-.1-.1-.3-.2-.4-.3l.3-.3c.1.1.2.2.3.3z"/><path d="m470.7 96.1c.3.6.5-.3.3.3 0 .1-.1.3-.1.3-.3-.2-.4-.4 0-.7z"/><path d="m519.5 278.7c-.1.1-.2.2-.3.3-.1-.1-.2-.2-.2-.3s.2-.2.3-.3c0 .1.1.2.2.3z"/><path d="m81.1 277.8c.3.4.5.8 0 1.2-.2-.2-.4-.5-.5-.7.1-.2.3-.4.5-.5z"/><path d="m513.1 165.9-.1-.3h.3z"/><path d="m87.2 165.4.1.4h-.3z"/><path d="m502.6 317.1c.2-.5.4-.9.6-1.4.4.5.7.9 1.1 1.4-.3.3-.7.5-1 .8-.3-.3-.5-.5-.7-.8z"/><path d="m58 508.7h6l1.6-1.6v-21.2h6.2v23.5l-4.1 4.1h-9.7z"/><path d="m77.7 485.9h9.3l6.4 22.1 6.4-22.1h9.4v27.6h-5.9v-23l-6.8 23h-7l-6.7-23v23h-5.2v-27.6z"/><path d="m114.1 509.2h4.7v-19h-4.7v-4.3h15.5v4.3h-4.7v19h4.7v4.3h-15.5z"/><path d="m134.5 485.9h6.2v22.7h10.6v4.9h-16.7v-27.6z"/><path d="m155.7 485.9h6.2v22.7h10.6v4.9h-16.7v-27.6z"/><path d="m176.1 509.8v-4.5h6.2v2.5l1.2 1.2h6.9l1.2-1.2v-4.8l-.9-.9h-11l-3.3-3.3v-9l3.9-3.8h13.7l3.7 3.7v4.4h-6.2v-2.5l-1.2-1.2h-6.6l-1.2 1.2v4.7l.9.9h11.1l3.3 3.3v9.2l-3.8 3.8h-13.9z"/><path d="m213.7 485.9h18.2v4.7h-12.1v6.5h11v4.7h-11v6.9h12.2v4.7h-18.3z"/><path d="m237.2 485.9h6.5l9.7 18.4v-18.4h5.5v27.6h-6.6l-9.6-18.5v18.5h-5.5z"/><path d="m270.6 490.9h-7.5v-5h21.2v5h-7.5v22.6h-6.2z"/><path d="m288.5 485.9h18.2v4.7h-12.1v6.5h11v4.7h-11v6.9h12.2v4.7h-18.3z"/><path d="m312 485.9h17.9l3.9 3.8v8.6l-3.4 3.4 4 11.7h-6.4l-3.5-10.8h-6.3v10.8h-6.2zm14.2 12.4 1.4-1.4v-5.3l-1.4-1.4h-8.1v8.1z"/><path d="m344.9 490.9h-7.5v-5h21.2v5h-7.5v22.6h-6.2z"/><path d="m366.2 485.9h9l7.6 27.6h-6.3l-1.6-6.2h-9l-1.6 6.2h-5.9zm1 16.7h6.7l-3.3-13.3z"/><path d="m385.6 509.2h4.7v-19h-4.7v-4.3h15.5v4.3h-4.7v19h4.7v4.3h-15.5z"/><path d="m406 485.9h6.5l9.7 18.4v-18.4h5.5v27.6h-6.6l-9.6-18.5v18.5h-5.5z"/><path d="m433.7 485.9h9.4l6.4 22.1 6.4-22.1h9.4v27.6h-5.9v-23l-6.8 23h-7l-6.7-23v23h-5.2z"/><path d="m471.3 485.9h18.2v4.7h-12.1v6.5h11v4.7h-11v6.9h12.2v4.7h-18.3z"/><path d="m494.8 485.9h6.5l9.7 18.4v-18.4h5.5v27.6h-6.6l-9.6-18.5v18.5h-5.5z"/><path d="m528.2 490.9h-7.5v-5h21.2v5h-7.5v22.6h-6.2z"/><path d="m93.9 550.5h-1.8v-14.4h-.3l-4.6 13.8c-.2.5-.3.6-.8.6h-1.1c-.5 0-.6-.1-.8-.6l-4.5-13.9h-.3v14.5h-1.8v-16.1h2.8c.5 0 .7.2.8.6l4.3 13.2h.3l4.3-13.2c.1-.5.3-.6.8-.6h2.7z"/><path d="m106.7 534.5c1.5 0 2 .2 2.5.6.9.8 1.3 2 1.3 7.4s-.5 6.6-1.3 7.4c-.5.5-1.1.6-2.5.6h-5c-1.4 0-2-.2-2.5-.6-.8-.8-1.3-2-1.3-7.4 0-5.5.5-6.6 1.3-7.4.5-.5 1.1-.6 2.5-.6zm-6.3 14.1c.2.2.5.3 1.5.3h4.6c1 0 1.2-.1 1.5-.3.4-.4.7-1.2.7-6.1s-.3-5.8-.7-6.1c-.2-.2-.5-.3-1.5-.3h-4.6c-1 0-1.2.1-1.5.3-.4.4-.7 1.2-.7 6.1s.4 5.8.7 6.1z"/><path d="m119.8 536v14.5h-1.8v-14.5h-5.2v-1.6h12.2v1.6z"/><path d="m127.8 550.5v-16.1h1.8v16.1z"/><path d="m142.5 534.5c1.5 0 2 .2 2.5.6.9.8 1.3 2 1.3 7.4s-.5 6.6-1.3 7.4c-.5.5-1.1.6-2.5.6h-5c-1.4 0-2-.2-2.5-.6-.8-.8-1.3-2-1.3-7.4 0-5.5.5-6.6 1.3-7.4.5-.5 1.1-.6 2.5-.6zm-6.3 14.1c.2.2.5.3 1.5.3h4.6c1 0 1.2-.1 1.5-.3.4-.4.7-1.2.7-6.1s-.3-5.8-.7-6.1c-.2-.2-.5-.3-1.5-.3h-4.6c-1 0-1.2.1-1.5.3-.4.4-.7 1.2-.7 6.1s.3 5.8.7 6.1z"/><path d="m162.6 550.5h-1.9c-.6 0-.8-.1-1-.6l-7.4-13.1h-.3v13.8h-1.8v-16.1h2c.6 0 .8.1 1 .6l7.2 12.8h.3v-13.4h1.8v16z"/><path d="m182.2 543.5c-.5.5-1.3.6-2.5.6h-5.8v6.4h-1.8v-16.1h7.7c1.2 0 2 .1 2.5.6.7.6 1.2 1.5 1.2 4.3-.1 2.7-.6 3.6-1.3 4.2zm-2.8-.9c.9 0 1.3-.1 1.5-.3.3-.3.6-.9.6-2.9 0-2.1-.3-2.7-.6-2.9-.3-.3-.7-.3-1.5-.3h-5.5v6.6h5.5z"/><path d="m186.8 550.5v-16.1h1.8v16.1z"/><path d="m203.7 549.9c-.5.5-1.1.6-2.5.6h-4.8c-1.4 0-2-.2-2.5-.6-.8-.8-1.3-2-1.3-7.4 0-5.5.5-6.6 1.3-7.4.5-.5 1.1-.6 2.5-.6h4.8c1.4 0 2 .2 2.5.6.8.7 1.1 1.7 1.2 4.4h-1.8c-.1-2.2-.3-2.8-.6-3.1-.2-.2-.5-.3-1.5-.3h-4.4c-1 0-1.2.1-1.5.3-.4.4-.7 1.2-.7 6.1s.4 5.8.7 6.1c.2.2.5.3 1.5.3h4.4c1 0 1.2-.1 1.5-.3.3-.3.6-.9.7-3.4h1.8c-.1 3.1-.5 4-1.3 4.7z"/><path d="m214 536v14.5h-1.8v-14.5h-5.2v-1.6h12.3v1.6z"/><path d="m234.1 544c0 3.9-.3 4.9-1.2 5.7-.6.6-1.5.8-3.3.8h-3.3c-1.8 0-2.7-.2-3.3-.8-.8-.8-1.2-1.8-1.2-5.7v-9.5h1.8v9.9c0 3.2.3 3.8.7 4.2.3.3.7.4 2.3.4h2.8c1.5 0 1.9-.1 2.2-.4.4-.4.7-1 .7-4.2v-9.9h1.8z"/><path d="m247.5 544c-.3-.3-.8-.4-1.8-.4h-5.4v7h-1.8v-16.1h8.1c1.1 0 1.9.2 2.4.7.6.6 1 1.4 1 3.8 0 2.8-.8 3.6-2.4 3.9 1.6.4 2.2.8 2.3 3.4.1 1.9.1 3.3.3 4.3h-1.8c-.2-1.1-.3-2.6-.3-4.2-.1-1.7-.2-2.1-.6-2.4zm-1.3-2c.8 0 1.2-.2 1.4-.4.3-.3.6-.8.6-2.6s-.3-2.4-.6-2.7c-.2-.2-.6-.3-1.4-.3h-5.9v6z"/><path d="m264.8 550.5h-10.6v-16.1h10.7v1.6h-8.9v5.4h7.6v1.5h-7.6v6h8.8z"/><path d="m283.9 549.8c-.5.5-1.1.7-2.3.7h-5.5c-1.2 0-1.9-.2-2.3-.7-.6-.6-.9-1.3-.9-4.2h1.8c0 2.3.2 2.7.4 2.9s.5.3 1.3.3h4.9c.8 0 1.1-.1 1.3-.4.3-.3.4-.9.4-2.5 0-1.5-.1-1.9-.4-2.3-.3-.2-.6-.3-1.4-.4l-5-.5c-1.3-.1-1.9-.4-2.4-.8-.6-.6-.8-1.3-.8-3.4 0-2 .2-3 .9-3.7.4-.5 1.1-.7 2.3-.7h5c1.2 0 1.9.2 2.4.7.6.6.8 1.3.9 4.1h-1.8c0-2.1-.1-2.5-.4-2.8-.3-.2-.6-.3-1.3-.3h-4.5c-.8 0-1.1.1-1.3.4-.3.3-.4 1-.4 2.4s.1 1.8.4 2.2c.3.3.6.3 1.4.4l5 .5c1.2.1 1.9.4 2.3.8.6.6.8 1.4.8 3.5.2 2.2-.1 3.2-.8 3.8z"/><path d="m294 536v14.5h-1.8v-14.5h-5.2v-1.6h12.3v1.6z"/><path d="m314.2 544c0 3.9-.3 4.9-1.1 5.7-.6.6-1.5.8-3.3.8h-3.3c-1.8 0-2.7-.2-3.3-.8-.8-.8-1.1-1.8-1.1-5.7v-9.5h1.8v9.9c0 3.2.3 3.8.7 4.2.3.3.7.4 2.3.4h2.8c1.5 0 1.9-.1 2.2-.4.4-.4.7-1 .7-4.2v-9.9h1.8v9.5z"/><path d="m325.8 534.5c1.7 0 2.6.3 3.4 1 1 .9 1.6 2.7 1.6 7.1 0 4.3-.6 6.1-1.6 7.1-.8.7-1.7 1-3.4 1h-7.3v-16.1h7.3zm2.1 2.1c-.5-.5-.9-.6-2-.6h-5.5v13h5.5c1.1 0 1.6-.1 2-.6.6-.6 1.1-1.9 1.1-5.9s-.5-5.3-1.1-5.9z"/><path d="m334.7 550.5v-16.1h1.8v16.1z"/><path d="m349.4 534.5c1.5 0 2 .2 2.5.6.9.8 1.3 2 1.3 7.4s-.5 6.6-1.3 7.4c-.5.5-1.1.6-2.5.6h-5c-1.4 0-2-.2-2.5-.6-.8-.8-1.3-2-1.3-7.4 0-5.5.5-6.6 1.3-7.4.5-.5 1.1-.6 2.5-.6zm-6.3 14.1c.2.2.5.3 1.5.3h4.6c1 0 1.2-.1 1.5-.3.4-.4.7-1.2.7-6.1s-.3-5.8-.7-6.1c-.2-.2-.5-.3-1.5-.3h-4.6c-1 0-1.2.1-1.5.3-.4.4-.7 1.2-.7 6.1s.3 5.8.7 6.1z"/><path d="m366.8 541.4h3.7v1.5h-3.7v3.7h-1.5v-3.6h-3.7v-1.5h3.7v-3.7h1.5z"/><path d="m381.1 536v5.7h6.9v1.5h-6.9v7.3h-1.8v-16.1h10.1v1.6z"/><path d="m392.5 550.5v-16.1h1.8v16.1z"/><path d="m400.6 549h8.2v1.6h-10v-16.1h1.8z"/><path d="m427.6 550.5h-1.8v-14.4h-.3l-4.6 13.8c-.2.5-.3.6-.8.6h-1.1c-.5 0-.6-.1-.8-.6l-4.6-13.9h-.3v14.5h-1.8v-16.1h2.8c.5 0 .7.2.8.6l4.3 13.2h.3l4.3-13.2c.1-.5.3-.6.8-.6h2.7v16.1z"/><path d="m445.8 545.6h-6.7l-1.6 4.9h-1.8l5.2-15.6c.1-.5.3-.6.9-.6h1.4c.6 0 .7.1.9.6l5.2 15.6h-2zm-6.2-1.5h5.7l-2.6-8.1h-.5z"/><path d="m460.2 534.5c1.4 0 2 .2 2.5.6.8.8 1.1 1.7 1.2 4.2h-1.8c-.1-1.9-.3-2.6-.6-3-.2-.2-.5-.3-1.4-.3h-4.5c-1 0-1.2.1-1.5.3-.4.4-.7 1.2-.7 6.1s.3 5.8.7 6.1c.2.2.5.3 1.5.3h4.5c1 0 1.2-.1 1.4-.3.4-.4.7-1.1.7-4.2v-.3h-4.4v-1.6h6.2v1.3c0 4.3-.4 5.4-1.3 6.2-.5.5-1.1.6-2.5.6h-4.8c-1.4 0-2-.2-2.5-.6-.8-.8-1.3-2-1.3-7.4 0-5.5.5-6.6 1.3-7.4.5-.5 1.1-.6 2.6-.6z"/><path d="m478.5 550.5h-10.6v-16.1h10.7v1.6h-8.9v5.4h7.6v1.5h-7.6v6h8.8z"/><path d="m494.3 550.5h-1.9c-.6 0-.8-.1-1-.6l-7.4-13.1h-.3v13.8h-1.7v-16.1h2c.6 0 .8.1 1 .6l7.2 12.8h.3v-13.4h1.8z"/><path d="m509.4 549.9c-.5.5-1.1.6-2.5.6h-4.8c-1.4 0-2-.2-2.5-.6-.8-.8-1.3-2-1.3-7.4 0-5.5.5-6.6 1.3-7.4.5-.5 1.1-.6 2.5-.6h4.8c1.4 0 2 .2 2.5.6.8.7 1.1 1.7 1.2 4.4h-1.8c-.1-2.2-.3-2.8-.6-3.1-.2-.2-.5-.3-1.5-.3h-4.4c-1 0-1.2.1-1.5.3-.4.4-.7 1.2-.7 6.1s.4 5.8.7 6.1c.2.2.5.3 1.5.3h4.4c1 0 1.2-.1 1.5-.3.3-.3.6-.9.7-3.4h1.8c-.2 3.1-.6 4-1.3 4.7z"/><path d="m519.7 544.2v6.4h-1.8v-6.4l-5.6-9.7h2l4.5 7.9h.1l4.4-7.9h2z"/></g></svg>