<svg enable-background="new 0 0 490 280" viewBox="0 0 490 280" xmlns="http://www.w3.org/2000/svg"><g fill="#987b40"><path d="m10.1 273.2c0-88.7 0-177.3 0-266h470.1v266c-156.7 0-313.3 0-470.1 0zm450.3-246.3c-143.5 0-286.9 0-430.4 0v226.9h430.4c0-75.7 0-151.3 0-226.9z"/><path d="m260.8 128.5c-2.2-.1-2.2-.1-2.9 1.8-4.4 12.7-8.7 25.3-13.1 38-1.3 3.9-2.7 7.8-4 11.7-.6 1.8-.6 1.8-2.6 1.8-3.6 0-7.2 0-10.8 0-1.8 0-1.8 0-2.4-1.8-2.8-8.1-5.6-16.2-8.4-24.3-2.8-8.3-5.7-16.6-8.5-24.8-.1-.3-.2-.7-.4-1-.6-1.4-.9-1.5-2.8-1.2v53.1c-8.1 0-16 0-24 0 0-29 0-57.9 0-87h36.8c.6.6.9 1.4 1.2 2.2 3.4 10.8 6.8 21.5 10.2 32.3.8 2.4 1.5 4.8 2.2 7.2.2.7.6 1.4.9 2.1.2.5.6.9 1.2.9.7 0 1-.5 1.2-1.1.4-1.2.8-2.3 1.1-3.5 1.6-5.2 3.1-10.4 4.7-15.5 2.3-7.7 4.7-15.4 7.1-23.1.1-.4.3-.9.5-1.4h37c.3 1.2.4 84.8.1 87-8.1 0-16.1 0-24.4 0 .1-17.9.1-35.6.1-53.4z"/><path d="m219 97-.7-2.2h-.4"/><path d="m332.1 113.7v14.5h32.4v17.9c-10.7 0-21.4 0-32 0-.4 1.4-.6 13.8-.2 16.7h44.1v18.9c-23.6 0-47.3 0-71 0 0-28.9 0-57.9 0-86.8 1.2-.4 69-.5 71.4-.1v18.9c-4.9 0-9.8 0-14.7 0-5 0-10 0-15 0s-9.9 0-15 0z"/><path d="m91.2 148h23.9c.4.3.2.8.3 1.3 0 2 .1 4 0 6-.1 1.7.7 3 1.6 4.2.6.8 1.5 1.3 2.6 1.3h11.5c1.9 0 3-.9 3.4-2.7.3-1.2.4-2.4.4-3.7 0-19.1 0-38.2.1-57.3 0-.7-.1-1.4.2-2.2h25.5c.4.4.3.9.3 1.3 0 20.8.1 41.6 0 62.5 0 5-1.4 9.8-4 14.1-3.2 5.3-8.1 8.2-14.3 8.8-8.2.8-16.3.2-24.5.4-3.6.1-7.2-.1-10.7-.5-2.9-.3-5.5-1.4-7.7-3.2-4.7-3.8-7.5-8.8-8.3-14.8-.6-5-.3-10.1-.3-15.1-.2-.3-.1-.3 0-.4z"/></g></svg>